<svg xmlns="http://www.w3.org/2000/svg" width="1200" height="348" viewBox="0 0 1200 348" role="img" aria-label="Adham Abu Hager — Full-Stack Developer"><defs><linearGradient id="bg" x1="0" y1="0" x2="1" y2="1"><stop stop-color="#0b1424"/><stop offset=".58" stop-color="#102238"/><stop offset="1" stop-color="#183149"/></linearGradient><linearGradient id="line" x1="0" x2="1"><stop stop-color="#41d2b1"/><stop offset="1" stop-color="#83a9ff"/></linearGradient><pattern id="grid" width="30" height="30" patternUnits="userSpaceOnUse"><path d="M30 0H0V30" fill="none" stroke="#62809b" stroke-opacity=".11"/></pattern></defs><rect width="1200" height="348" rx="20" fill="url(#bg)"/><rect width="1200" height="348" rx="20" fill="url(#grid)"/><path d="M0 325C240 280 450 385 700 311S1030 242 1200 295" fill="none" stroke="#4edbb7" stroke-opacity=".14" stroke-width="2"/><circle cx="1112" cy="33" r="165" fill="#54d8b5" opacity=".045"/><rect x="58" y="43" width="198" height="29" rx="14.5" fill="#1b3e47" stroke="#32796f"/><circle cx="76" cy="57.5" r="4" fill="#55e1b8"/><text x="88" y="62" fill="#9af2d5" font-family="Arial,sans-serif" font-size="11" font-weight="bold" letter-spacing="1.5">DEVELOPER / AMMAN</text><text x="56" y="145" fill="#f7fbff" font-family="Arial,sans-serif" font-size="59" font-weight="bold" letter-spacing="-.8">Adham Abu Hager</text><rect x="58" y="164" width="78" height="4" rx="2" fill="url(#line)"/><text x="57" y="216" fill="#76e6c8" font-family="Arial,sans-serif" font-size="28" font-weight="bold">Full-Stack Developer</text><text x="58" y="261" fill="#c6d7e8" font-family="Arial,sans-serif" font-size="18">I build web applications from interface to API.</text><text x="58" y="304" fill="#8eabc4" font-family="Arial,sans-serif" font-size="14" letter-spacing=".4">REACT / NEXT.JS  ·  NODE.JS / EXPRESS  ·  ASP.NET CORE</text><path d="M793 54V294" stroke="#466178" stroke-opacity=".7"/><text x="833" y="65" fill="#8eabc4" font-family="Arial,sans-serif" font-size="12" letter-spacing="2.5" font-weight="bold">FEATURED WORK</text><rect x="830" y="84" width="316" height="91" rx="12" fill="#172c40" stroke="#37636b"/><rect x="830" y="84" width="5" height="91" rx="2.5" fill="#55d8b4"/><text x="850" y="115" fill="#f7fbff" font-family="Arial,sans-serif" font-weight="bold" font-size="20">Aoun <tspan fill="#6addb8">↗</tspan></text><text x="850" y="139" fill="#a9c2d4" font-family="Arial,sans-serif" font-size="14">In-kind donation platform</text><text x="850" y="158" fill="#74d4bb" font-family="Arial,sans-serif" font-size="11" letter-spacing="1.1">NEXT.JS  ·  NODE.JS</text><rect x="830" y="191" width="316" height="91" rx="12" fill="#172c40" stroke="#495f78"/><rect x="830" y="191" width="5" height="91" rx="2.5" fill="#8badfa"/><text x="850" y="222" fill="#f7fbff" font-family="Arial,sans-serif" font-weight="bold" font-size="20">UniEvents <tspan fill="#8badfa">↗</tspan></text><text x="850" y="246" fill="#a9c2d4" font-family="Arial,sans-serif" font-size="14">University event booking</text><text x="850" y="265" fill="#9cbaff" font-family="Arial,sans-serif" font-size="11" letter-spacing="1.1">ASP.NET CORE  ·  SQL SERVER</text><text x="1146" y="317" text-anchor="end" fill="#69869e" font-family="Arial,sans-serif" font-size="11" letter-spacing="1">ADHAMABUHAGERDEV.SITE</text></svg>