<svg xmlns="http://www.w3.org/2000/svg" width="1200" height="390" viewBox="0 0 1200 390" role="img" aria-label="Adham Abu Hager, Full-Stack Developer in Amman, Jordan"><defs><linearGradient id="bg" x1="0" x2="1" y2="1"><stop stop-color="#0B1120"/><stop offset="0.65" stop-color="#14263B"/><stop offset="1" stop-color="#133A3D"/></linearGradient><linearGradient id="accent" x1="0" x2="1"><stop stop-color="#E2C58E"/><stop offset="1" stop-color="#A2E4D1"/></linearGradient><pattern id="dots" width="24" height="24" patternUnits="userSpaceOnUse"><circle cx="1" cy="1" r="1" fill="#D9E5EF" opacity="0.12"/></pattern><filter id="blur"><feGaussianBlur stdDeviation="42"/></filter></defs><rect width="1200" height="390" rx="22" fill="url(#bg)"/><rect width="1200" height="390" rx="22" fill="url(#dots)"/><circle cx="1090" cy="35" r="185" fill="#54A99C" opacity="0.15" filter="url(#blur)"/><circle cx="766" cy="405" r="166" fill="#E2C58E" opacity="0.10" filter="url(#blur)"/><path d="M0 347C259 294 446 415 701 331S1073 322 1200 276" stroke="#E2C58E" stroke-opacity="0.15" stroke-width="1.5" fill="none"/><path d="M0 365C257 321 453 442 710 356S1073 345 1200 297" stroke="#A2E4D1" stroke-opacity="0.12" stroke-width="1.5" fill="none"/><rect x="58" y="47" width="186" height="29" rx="14.5" fill="#1D3441" stroke="#58736C"/><circle cx="75" cy="61" r="4" fill="#E2C58E"/><text x="88" y="66" fill="#E7D4AE" font-family="Arial,sans-serif" font-weight="bold" font-size="11" letter-spacing="1.3">FULL-STACK DEVELOPER</text><text x="55" y="159" fill="#F7F7F2" font-family="Arial,Helvetica,sans-serif" font-weight="bold" font-size="57" letter-spacing="-1.5">Adham Abu Hager</text><rect x="58" y="179" width="92" height="4" rx="2" fill="url(#accent)"/><text x="57" y="228" fill="#E2C58E" font-family="Arial,Helvetica,sans-serif" font-weight="bold" font-size="26">Building from interface to infrastructure.</text><text x="58" y="267" fill="#C2D4D8" font-family="Arial,Helvetica,sans-serif" font-size="18">React / Next.js  &#8226;  Node.js / Express  &#8226;  ASP.NET Core</text><text x="58" y="334" fill="#92ACB4" font-family="Arial,Helvetica,sans-serif" font-size="14" letter-spacing="1.4">AMMAN, JORDAN    /    PORTFOLIO: ADHAMABUHAGERDEV.SITE</text><rect x="818" y="58" width="327" height="268" rx="18" fill="#0C1C2C" stroke="#385564"/><rect x="818" y="58" width="327" height="39" rx="18" fill="#183246"/><path d="M818 80V97H1145V80" fill="#183246"/><circle cx="843" cy="78" r="4.5" fill="#E2C58E"/><circle cx="860" cy="78" r="4.5" fill="#75A5A1"/><circle cx="877" cy="78" r="4.5" fill="#90B1CE"/><text x="1082" y="83" fill="#9FBDC6" font-family="monospace" font-size="11">build.ts</text><text x="847" y="132" fill="#93B3C0" font-family="monospace" font-size="15">// what I deliver</text><text x="847" y="169" fill="#E8EDE9" font-family="monospace" font-size="19">interface <tspan fill="#E2C58E">&#8594;</tspan> API</text><path d="M847 183H1116" stroke="#375363"/><text x="847" y="216" fill="#E8EDE9" font-family="monospace" font-size="19">API <tspan fill="#E2C58E">&#8594;</tspan> data</text><path d="M847 230H1116" stroke="#375363"/><text x="847" y="262" fill="#E8EDE9" font-family="monospace" font-size="19">code <tspan fill="#E2C58E">&#8594;</tspan> deployed app</text><rect x="847" y="286" width="266" height="21" rx="10.5" fill="#1A3A39"/><text x="980" y="301" fill="#AFE6D6" font-family="Arial,sans-serif" font-size="11" text-anchor="middle" letter-spacing="1.2">AOUN  /  UNIEVENTS</text></svg>